<svg width="189" height="25" viewBox="0 0 189 25" fill="none" xmlns="http://www.w3.org/2000/svg">
<path d="M0.503688 19V1.72H3.91169L12.4797 10.384V15.976L3.55169 6.952L4.77569 6.448V19H0.503688ZM11.0637 19V1.72H15.3117V19H11.0637ZM18.2044 12.4C18.2044 10.848 18.4924 9.568 19.0684 8.56C19.6444 7.536 20.4364 6.776 21.4444 6.28C22.4684 5.768 23.6444 5.512 24.9724 5.512C26.2844 5.512 27.4524 5.768 28.4764 6.28C29.5004 6.776 30.3004 7.536 30.8764 8.56C31.4524 9.568 31.7404 10.848 31.7404 12.4C31.7404 13.936 31.4524 15.216 30.8764 16.24C30.3004 17.248 29.5004 18.008 28.4764 18.52C27.4524 19.016 26.2844 19.264 24.9724 19.264C23.6444 19.264 22.4684 19.016 21.4444 18.52C20.4204 18.008 19.6204 17.248 19.0444 16.24C18.4844 15.216 18.2044 13.936 18.2044 12.4ZM22.5004 12.4C22.5004 13.648 22.7004 14.592 23.1004 15.232C23.5164 15.872 24.1404 16.192 24.9724 16.192C25.8044 16.192 26.4204 15.872 26.8204 15.232C27.2364 14.592 27.4444 13.648 27.4444 12.4C27.4444 11.136 27.2364 10.184 26.8204 9.544C26.4204 8.904 25.8044 8.584 24.9724 8.584C24.1404 8.584 23.5164 8.904 23.1004 9.544C22.7004 10.184 22.5004 11.136 22.5004 12.4ZM34.6287 19V1.72H38.9007V19H34.6287ZM36.9327 13.36V9.856H44.8287V13.36H36.9327ZM36.9327 5.416V1.72H46.0287V5.416H36.9327ZM55.0546 19.288C54.2226 19.288 53.4066 19.2 52.6066 19.024C51.8066 18.848 51.0866 18.544 50.4466 18.112C49.8226 17.664 49.3266 17.056 48.9586 16.288C48.5906 15.504 48.4066 14.504 48.4066 13.288V9.88C48.4066 9.56 48.3986 9.152 48.3826 8.656C48.3666 8.16 48.3426 7.68 48.3106 7.216C48.2786 6.736 48.2226 6.352 48.1426 6.064L48.2386 5.872H52.6306V13.168C52.6306 13.904 52.7426 14.48 52.9666 14.896C53.2066 15.296 53.5266 15.576 53.9266 15.736C54.3426 15.88 54.8306 15.952 55.3906 15.952C55.8386 15.952 56.2626 15.904 56.6626 15.808C57.0626 15.696 57.4226 15.592 57.7426 15.496L57.1666 16.408C57.0546 16.168 56.9746 15.856 56.9266 15.472C56.8786 15.088 56.8546 14.608 56.8546 14.032V9.88C56.8546 9.56 56.8466 9.152 56.8306 8.656C56.8146 8.16 56.7826 7.68 56.7346 7.216C56.7026 6.736 56.6546 6.352 56.5906 6.064L56.6626 5.872H61.0786V13.96C61.0786 14.28 61.0786 14.696 61.0786 15.208C61.0946 15.704 61.1186 16.192 61.1506 16.672C61.1986 17.152 61.2546 17.536 61.3186 17.824L61.2466 18.016C60.7186 18.24 60.1106 18.448 59.4226 18.64C58.7506 18.832 58.0386 18.984 57.2866 19.096C56.5506 19.224 55.8066 19.288 55.0546 19.288ZM64.7224 19V10.888C64.7224 10.568 64.7144 10.16 64.6984 9.664C64.6984 9.152 64.6744 8.656 64.6264 8.176C64.5944 7.68 64.5464 7.288 64.4824 7L64.5544 6.808C65.0824 6.584 65.6824 6.376 66.3544 6.184C67.0424 5.992 67.7624 5.832 68.5144 5.704C69.2824 5.576 70.0424 5.512 70.7944 5.512C71.6264 5.512 72.4344 5.6 73.2184 5.776C74.0024 5.952 74.7064 6.264 75.3304 6.712C75.9704 7.144 76.4744 7.752 76.8424 8.536C77.2104 9.32 77.3944 10.312 77.3944 11.512V19H73.1704V11.656C73.1704 10.904 73.0584 10.328 72.8344 9.928C72.6104 9.528 72.2904 9.248 71.8744 9.088C71.4744 8.928 71.0104 8.848 70.4824 8.848C70.0184 8.848 69.5784 8.904 69.1624 9.016C68.7464 9.128 68.3704 9.24 68.0344 9.352L68.6344 8.416C68.7464 8.656 68.8264 8.976 68.8744 9.376C68.9224 9.76 68.9464 10.248 68.9464 10.84V19H64.7224ZM80.9412 19V1.72H84.5412L90.5172 11.536L88.7652 11.56L94.6452 1.72H98.2452V19H93.9972V7.84L94.8612 8.08L90.6132 15.136H88.5732L84.3252 8.176L85.2132 7.936V19H80.9412ZM101.126 12.4C101.126 10.848 101.414 9.568 101.99 8.56C102.566 7.536 103.358 6.776 104.366 6.28C105.39 5.768 106.566 5.512 107.894 5.512C109.206 5.512 110.374 5.768 111.398 6.28C112.422 6.776 113.222 7.536 113.798 8.56C114.374 9.568 114.662 10.848 114.662 12.4C114.662 13.936 114.374 15.216 113.798 16.24C113.222 17.248 112.422 18.008 111.398 18.52C110.374 19.016 109.206 19.264 107.894 19.264C106.566 19.264 105.39 19.016 104.366 18.52C103.342 18.008 102.542 17.248 101.966 16.24C101.406 15.216 101.126 13.936 101.126 12.4ZM105.422 12.4C105.422 13.648 105.622 14.592 106.022 15.232C106.438 15.872 107.062 16.192 107.894 16.192C108.726 16.192 109.342 15.872 109.742 15.232C110.158 14.592 110.366 13.648 110.366 12.4C110.366 11.136 110.158 10.184 109.742 9.544C109.342 8.904 108.726 8.584 107.894 8.584C107.062 8.584 106.438 8.904 106.022 9.544C105.622 10.184 105.422 11.136 105.422 12.4ZM117.551 19V10.888C117.551 10.568 117.543 10.16 117.527 9.664C117.527 9.152 117.503 8.656 117.455 8.176C117.423 7.68 117.375 7.288 117.311 7L117.383 6.808C117.911 6.584 118.511 6.376 119.183 6.184C119.871 5.992 120.591 5.832 121.343 5.704C122.111 5.576 122.871 5.512 123.623 5.512C124.455 5.512 125.263 5.6 126.047 5.776C126.831 5.952 127.535 6.264 128.159 6.712C128.799 7.144 129.303 7.752 129.671 8.536C130.039 9.32 130.223 10.312 130.223 11.512V19H125.999V11.656C125.999 10.904 125.887 10.328 125.663 9.928C125.439 9.528 125.119 9.248 124.703 9.088C124.303 8.928 123.839 8.848 123.311 8.848C122.847 8.848 122.407 8.904 121.991 9.016C121.575 9.128 121.199 9.24 120.863 9.352L121.463 8.416C121.575 8.656 121.655 8.976 121.703 9.376C121.751 9.76 121.775 10.248 121.775 10.84V19H117.551ZM140.443 19.288C138.923 19.288 137.595 19.056 136.459 18.592C135.339 18.128 134.467 17.392 133.843 16.384C133.235 15.36 132.931 14.032 132.931 12.4C132.931 10.976 133.211 9.76 133.771 8.752C134.347 7.728 135.155 6.944 136.195 6.4C137.251 5.84 138.483 5.552 139.891 5.536C140.499 5.52 141.019 5.568 141.451 5.68C141.883 5.776 142.179 5.856 142.339 5.92L142.315 8.992C142.091 8.912 141.843 8.84 141.571 8.776C141.315 8.696 140.995 8.656 140.611 8.656C139.459 8.656 138.603 8.992 138.043 9.664C137.499 10.32 137.227 11.232 137.227 12.4C137.227 13.136 137.339 13.792 137.563 14.368C137.787 14.928 138.147 15.368 138.643 15.688C139.139 16.008 139.779 16.168 140.563 16.168C141.011 16.168 141.379 16.136 141.667 16.072C141.955 16.008 142.203 15.936 142.411 15.856L142.123 16.888C141.947 16.616 141.843 16.288 141.811 15.904C141.779 15.504 141.763 15.072 141.763 14.608V5.2C141.763 4.784 141.747 4.296 141.715 3.736C141.699 3.16 141.675 2.616 141.643 2.104C141.611 1.576 141.563 1.192 141.499 0.951999L141.571 0.759999H145.987V14.344C145.987 14.664 145.987 15.072 145.987 15.568C146.003 16.048 146.019 16.528 146.035 17.008C146.067 17.472 146.115 17.848 146.179 18.136L146.083 18.328C145.411 18.6 144.603 18.824 143.659 19C142.731 19.192 141.659 19.288 140.443 19.288ZM155.087 19.288C152.975 19.288 151.383 18.976 150.311 18.352C149.239 17.712 148.703 16.624 148.703 15.088C148.703 14.112 148.943 13.32 149.423 12.712C149.919 12.104 150.599 11.664 151.463 11.392C152.327 11.104 153.311 10.96 154.415 10.96C154.959 10.96 155.455 10.992 155.903 11.056C156.351 11.12 156.775 11.2 157.175 11.296V13.768C156.935 13.688 156.615 13.616 156.215 13.552C155.815 13.488 155.431 13.456 155.063 13.456C154.215 13.456 153.583 13.576 153.167 13.816C152.767 14.056 152.567 14.456 152.567 15.016C152.567 15.576 152.767 15.968 153.167 16.192C153.583 16.416 154.167 16.528 154.919 16.528C155.415 16.528 155.895 16.48 156.359 16.384C156.823 16.272 157.215 16.088 157.535 15.832L157.055 17.008C156.943 16.752 156.855 16.52 156.791 16.312C156.727 16.104 156.679 15.888 156.647 15.664C156.615 15.424 156.591 15.144 156.575 14.824C156.575 14.488 156.575 14.072 156.575 13.576V11.056C156.575 10.4 156.463 9.896 156.239 9.544C156.015 9.192 155.671 8.96 155.207 8.848C154.759 8.72 154.191 8.656 153.503 8.656C152.815 8.656 152.159 8.72 151.535 8.848C150.927 8.96 150.431 9.104 150.047 9.28H149.807V6.064C150.383 5.904 151.023 5.776 151.727 5.68C152.447 5.568 153.207 5.512 154.007 5.512C154.983 5.512 155.879 5.6 156.695 5.776C157.511 5.952 158.215 6.256 158.807 6.688C159.415 7.104 159.879 7.688 160.199 8.44C160.519 9.176 160.679 10.128 160.679 11.296V14.2C160.679 14.536 160.687 14.952 160.703 15.448C160.719 15.944 160.743 16.432 160.775 16.912C160.807 17.392 160.863 17.776 160.943 18.064L160.847 18.256C160.287 18.464 159.695 18.648 159.071 18.808C158.447 18.952 157.799 19.064 157.127 19.144C156.455 19.24 155.775 19.288 155.087 19.288ZM164.945 24.568V24.28L168.257 16.456L171.929 5.872H176.225V6.16L169.193 24.568H164.945ZM167.273 20.344L162.065 6.16V5.872H166.577L169.529 15.856L167.273 20.344ZM177.42 15.136H177.612C178.188 15.376 178.884 15.592 179.7 15.784C180.516 15.976 181.332 16.072 182.148 16.072C182.468 16.072 182.764 16.064 183.036 16.048C183.308 16.016 183.54 15.968 183.732 15.904C183.94 15.84 184.1 15.736 184.212 15.592C184.324 15.448 184.38 15.256 184.38 15.016C184.38 14.664 184.228 14.424 183.924 14.296C183.636 14.168 183.124 14.04 182.388 13.912L181.308 13.72C180.092 13.496 179.124 13.104 178.404 12.544C177.7 11.984 177.348 11.128 177.348 9.976C177.348 9.144 177.572 8.4 178.02 7.744C178.468 7.072 179.172 6.552 180.132 6.184C181.092 5.8 182.332 5.608 183.852 5.608C184.572 5.608 185.228 5.648 185.82 5.728C186.428 5.808 187.036 5.936 187.644 6.112V9.448H187.452C186.796 9.192 186.156 9.016 185.532 8.92C184.908 8.808 184.316 8.752 183.756 8.752C183.02 8.752 182.444 8.832 182.028 8.992C181.612 9.136 181.404 9.408 181.404 9.808C181.404 10.112 181.564 10.328 181.884 10.456C182.22 10.584 182.7 10.704 183.324 10.816L184.428 11.008C185.18 11.136 185.86 11.344 186.468 11.632C187.092 11.92 187.588 12.328 187.956 12.856C188.324 13.368 188.508 14.032 188.508 14.848C188.508 16.32 187.956 17.416 186.852 18.136C185.764 18.84 184.116 19.192 181.908 19.192C181.156 19.192 180.38 19.128 179.58 19C178.78 18.872 178.06 18.712 177.42 18.52V15.136Z" fill="white"/>
</svg>
